<svg xmlns="http://www.w3.org/2000/svg" xmlns:xlink="http://www.w3.org/1999/xlink" fill="none" version="1.1" width="35" height="40" viewBox="0 0 35 40"><defs><clipPath id="master_svg0_0_1159"><rect x="0" y="0" width="35" height="40" rx="0"/></clipPath></defs><g clip-path="url(#master_svg0_0_1159)"><rect x="0" y="0" width="35" height="40" rx="0" fill="#FFFFFF" fill-opacity="1" style="mix-blend-mode:multiply"/><g transform="matrix(0,1,-1,0,32.663166999816895,-11.309000968933105)"><path d="M22.315335984375,10.300795015441894L31.986083984375,18.762703015441893L41.656683984375,10.300915015441895L41.656783984375,10.300795015441894Q41.725183984375,10.240980015441895,41.810183984375,10.209032015441895Q41.895283984375,10.177083015441895,41.986083984375,10.177083015441895Q42.035283984375,10.177083015441895,42.083583984375,10.186690015441895Q42.131883984375,10.196298015441894,42.177383984375,10.215143015441894Q42.222883984375,10.233989015441894,42.263883984375,10.261348015441895Q42.304783984375,10.288708015441895,42.339683984375,10.323530015441895Q42.374483984375004,10.358352015441895,42.401783984375,10.399298015441895Q42.429183984375,10.440244015441895,42.447983984375,10.485741015441894Q42.466883984375,10.531238015441895,42.476483984375,10.579537915441895Q42.486083984375,10.627837315441894,42.486083984375,10.677083015441895Q42.486083984375,10.785219015441895,42.441383984375,10.883691015441894Q42.396683984375,10.982163015441895,42.315383984375,11.053371015441895L42.315183984375,11.053492015441895L32.315383984375,19.803373015441892Q32.281483984375,19.833033015441895,32.242783984375,19.856163015441894Q32.204083984375,19.879283015441892,32.161983984375,19.895133015441893Q32.119783984375,19.910983015441893,32.075483984375,19.919033015441894Q32.031083984375,19.927083015441895,31.986083984375,19.927083015441895Q31.941033984375,19.927083015441895,31.896713984374998,19.919033015441894Q31.852393984375,19.910983015441893,31.810223984375,19.895133015441893Q31.768053984375,19.879283015441892,31.729393984375,19.856163015441894Q31.690733984375,19.833033015441895,31.656833984374998,19.803373015441892L21.656831984375,11.053371015441895Q21.575450984375,10.982163015441895,21.530767984375,10.883691015441894Q21.486083984375,10.785219015441895,21.486083984375,10.677083015441895Q21.486083984375,10.627837315441894,21.495690984375,10.579537915441895Q21.505298984375,10.531238015441895,21.524143984375,10.485741015441894Q21.542989984375,10.440244015441895,21.570348984375,10.399298015441895Q21.597708984375,10.358352015441895,21.632530984375,10.323530015441895Q21.667352984375,10.288708015441895,21.708298984375,10.261348015441895Q21.749244984375,10.233989015441894,21.794741984375,10.215143015441894Q21.840238984375,10.196298015441894,21.888538884375,10.186690015441895Q21.936838284375,10.177083015441895,21.986083984375,10.177083015441895Q22.076917684375,10.177083015441895,22.161946984375,10.209032015441895Q22.246976984375,10.240980015441895,22.315335984375,10.300795015441894Z" fill-rule="evenodd" fill="#0F234C" fill-opacity="1"/></g></g></svg>