<svg xmlns="http://www.w3.org/2000/svg" xmlns:xlink="http://www.w3.org/1999/xlink" fill="none" version="1.1" width="19.631866455078125" height="18.00006103515625" viewBox="0 0 19.631866455078125 18.00006103515625"><g><g transform="matrix(0.07118938118219376,-0.997462809085846,0.997462809085846,0.07118938118219376,-4.296458707950592,23.031968311151104)"><g><path d="M12.401268364257813,19.10372845503807C11.195995364257813,19.10372845503807,10.218826294257813,17.98300845503807,10.218826294257813,16.60024845503807C10.218826294257813,15.217478455038071,11.195995364257813,14.09675845503807,12.401268364257813,14.09675845503807L12.401268364257813,16.03035845503807C12.626278364257812,14.922219455038071,13.493108364257813,14.09675845503807,14.526878364257811,14.09675845503807L14.526878364257811,16.03378845503807C14.750658364257813,14.923926455038071,15.617758364257813,14.09675845503807,16.65321836425781,14.09675845503807L16.65321836425781,19.10372845503807C15.617758364257813,19.10372845503807,14.750658364257813,18.27655845503807,14.526878364257811,17.16669845503807L14.526878364257811,19.10372845503807C13.492548364257813,19.10372845503807,12.626198364257812,18.27835845503807,12.401268364257813,17.17031845503807L12.401268364257813,19.10372845503807Z" fill-rule="evenodd" fill="#FF4802" fill-opacity="1"/></g></g><g transform="matrix(0.7372445464134216,-0.6756259799003601,0.6756259799003601,0.7372445464134216,-9.2991926245586,6.186295307855289)"><g><path d="M5.3054682666015625,15.3957400546875Q5.140648266601563,15.2291830546875,4.924398266601562,15.1389445546875Q4.708148266601563,15.0487060546875,4.473828266601562,15.0487060546875Q4.416358266601563,15.0487060546875,4.359158266601563,15.0543398446875Q4.301952266601562,15.0599736546875,4.245579266601562,15.0711869546875Q4.189206266601563,15.0824002546875,4.1342032666015625,15.0990851546875Q4.0792012666015625,15.1157700546875,4.026098266601562,15.1377657546875Q3.9729962666015624,15.1597610546875,3.9223052666015628,15.1868560546875Q3.8716142666015623,15.2139510546875,3.8238232666015626,15.2458840546875Q3.7760332666015626,15.2778170546875,3.7316022666015627,15.3142800546875Q3.6871712666015624,15.3507430546875,3.6465282666015626,15.3913860546875Q3.6058852666015624,15.4320290546875,3.5694222666015625,15.4764600546875Q3.5329592666015626,15.5208910546875,3.5010262666015626,15.5686810546875Q3.4690932666015626,15.6164720546875,3.4419982666015625,15.6671630546875Q3.4149032666015624,15.7178540546875,3.3929079666015625,15.7709560546875Q3.3709122666015623,15.824059054687499,3.3542273666015623,15.8790610546875Q3.3375424666015623,15.9340640546875,3.3263291666015626,15.9904370546875Q3.3151158666015625,16.0468100546875,3.3094820566015626,16.1040160546875Q3.3038482666015625,16.1612160546875,3.3038482666015625,16.2186860546875Q3.3038482666015625,16.4332860546875,3.3800097666015625,16.6339160546875Q3.4561712666015625,16.8345460546875,3.5985782666015624,16.9950860546875Q3.4561712666015625,17.1556260546875,3.3800097666015625,17.3562560546875Q3.3038482666015625,17.5568860546875,3.3038482666015625,17.7714860546875Q3.3038482666015625,17.8289660546875,3.3094820566015626,17.8861660546875Q3.3151158666015625,17.943366054687502,3.3263291666015626,17.9997360546875Q3.3375424666015623,18.0561060546875,3.3542273666015623,18.1111160546875Q3.3709122666015623,18.1661160546875,3.3929079666015625,18.2192160546875Q3.4149032666015624,18.2723160546875,3.4419982666015625,18.3230160546875Q3.4690932666015626,18.3737060546875,3.5010262666015626,18.421496054687502Q3.5329592666015626,18.4692860546875,3.5694222666015625,18.5137160546875Q3.6058852666015624,18.5581460546875,3.6465282666015626,18.5987860546875Q3.6871712666015624,18.6394260546875,3.7316022666015627,18.6758960546875Q3.7760332666015626,18.7123560546875,3.8238232666015626,18.7442860546875Q3.8716142666015623,18.7762260546875,3.9223052666015628,18.8033160546875Q3.9729962666015624,18.8304160546875,4.026098266601562,18.8524060546875Q4.0792012666015625,18.8744060546875,4.1342032666015625,18.8910860546875Q4.189206266601563,18.9077760546875,4.245579266601562,18.9189860546875Q4.301952266601562,18.9301960546875,4.359158266601563,18.9358360546875Q4.416358266601563,18.9414660546875,4.473828266601562,18.9414660546875Q4.708148266601563,18.9414660546875,4.924398266601562,18.8512260546875Q5.140648266601563,18.7609960546875,5.3054682666015625,18.5944360546875Q5.470278266601563,18.7609660546875,5.686508266601562,18.8511860546875Q5.902738266601562,18.9414060546875,6.137038266601563,18.9414060546875Q6.194518266601563,18.9414060546875,6.2517182666015625,18.9357760546875Q6.308918266601562,18.9301360546875,6.365288266601563,18.9189260546875Q6.4216682666015625,18.9077160546875,6.476668266601562,18.8910260546875Q6.531668266601562,18.8743460546875,6.584768266601563,18.8523460546875Q6.637878266601563,18.8303560546875,6.688568266601562,18.803256054687502Q6.739258266601563,18.7761660546875,6.787048266601563,18.744226054687502Q6.834838266601563,18.7122960546875,6.879268266601562,18.6758360546875Q6.923698266601562,18.6393660546875,6.964338266601562,18.5987260546875Q7.004988266601563,18.5580860546875,7.041448266601563,18.5136560546875Q7.077908266601563,18.4692260546875,7.1098482666015625,18.4214360546875Q7.141778266601563,18.373636054687502,7.168868266601562,18.3229460546875Q7.195968266601563,18.2722560546875,7.2179582666015625,18.2191560546875Q7.239958266601563,18.166056054687502,7.256648266601562,18.1110560546875Q7.273328266601562,18.0560460546875,7.284538266601563,17.999676054687498Q7.295758266601562,17.9433060546875,7.301388266601562,17.8861060546875Q7.307028266601563,17.8289060546875,7.307028266601563,17.7714260546875Q7.307028266601563,17.5568460546875,7.230878266601563,17.3562360546875Q7.154728266601563,17.1556260546875,7.012348266601562,16.9950960546875Q7.154758266601562,16.8345560546875,7.230918266601563,16.6339160546875Q7.307088266601562,16.4332860546875,7.307088266601562,16.2186860546875Q7.307088266601562,16.1612160546875,7.301448266601563,16.1040160546875Q7.295818266601563,16.0468100546875,7.284608266601563,15.9904370546875Q7.273388266601563,15.9340640546875,7.256708266601562,15.8790610546875Q7.240018266601563,15.824059054687499,7.2180282666015625,15.7709560546875Q7.196028266601562,15.7178540546875,7.168938266601563,15.6671630546875Q7.141838266601562,15.6164720546875,7.109908266601563,15.5686810546875Q7.077978266601562,15.5208910546875,7.0415082666015625,15.4764600546875Q7.0050482666015625,15.4320290546875,6.964408266601563,15.3913860546875Q6.9237582666015625,15.3507430546875,6.879328266601563,15.3142800546875Q6.834898266601563,15.2778170546875,6.787108266601562,15.2458840546875Q6.739318266601563,15.2139510546875,6.688628266601563,15.1868560546875Q6.637938266601562,15.1597610546875,6.584838266601563,15.1377657546875Q6.531728266601562,15.1157700546875,6.476728266601563,15.0990851546875Q6.421728266601562,15.0824002546875,6.365358266601563,15.0711869546875Q6.308978266601562,15.0599736546875,6.251778266601562,15.0543398446875Q6.194578266601562,15.0487060546875,6.137098266601562,15.0487060546875Q5.902778266601563,15.0487060546875,5.686528266601563,15.1389445546875Q5.470288266601562,15.2291830546875,5.3054682666015625,15.3957400546875Z" fill-rule="evenodd" fill="#DAA8EF" fill-opacity="1"/></g></g><g transform="matrix(0.9982455968856812,-0.05920897796750069,0.05920897796750069,0.9982455968856812,-0.2227817032569419,0.006602080751520134)"><g><path d="M0.0000061988790625,10.43512427734375C0.0000061988790625,8.985634277343749,0.8751352587890625,7.74405427734375,2.1129152587890623,7.23565427734375L1.9210652587890624,7.23565427734375C0.8608662587890625,7.23565427734375,0.0000152587890625,6.35328427734375,0.0000152587890625,5.26658427734375L0.0000152587890625,3.79040317734375L1.4401952587890625,3.79040317734375C2.5003852587890627,3.79040317734375,3.3612352587890624,4.67277527734375,3.3612352587890624,5.75947427734375L3.3612352587890624,6.34460427734375C3.7354652587890627,4.86038427734375,5.051565258789062,3.76275634734375,6.6158652587890625,3.76275634734375C6.6158652587890625,5.21212427734375,5.740875258789062,6.45362427734375,4.503255258789062,6.96209427734375L4.694825258789063,6.96209427734375C5.755025258789063,6.96209427734375,6.615875258789062,7.84446427734375,6.615875258789062,8.93117427734375L6.615875258789062,10.40735427734375L5.175695258789062,10.40735427734375C4.115505258789063,10.40735427734375,3.2546552587890627,9.52497427734375,3.2546552587890627,8.43827427734375L3.2546552587890627,7.85318427734375C2.8804552587890626,9.33744427734375,1.5643352587890624,10.43512427734375,0.0000061988790625,10.43512427734375Z" fill-rule="evenodd" fill="#3057A7" fill-opacity="1"/></g></g><g><g><path d="M19.631865747070314,3.00260126953125Q19.631865747070314,3.13371126953125,19.619015747070314,3.26419126953125Q19.606165747070314,3.39467126953125,19.580585747070312,3.52326126953125Q19.55500574707031,3.65185126953125,19.516945747070313,3.77731126953125Q19.47888574707031,3.90278126953125,19.428715747070314,4.02390126953125Q19.378535747070313,4.14503126953125,19.31673574707031,4.26066126953125Q19.254935747070313,4.37629126953125,19.182095747070314,4.48530126953125Q19.10924574707031,4.59432126953125,19.026075747070312,4.69567126953125Q18.942895747070313,4.79702126953125,18.850195747070313,4.88973126953125Q18.757485747070312,4.98243126953125,18.656135747070312,5.06561126953125Q18.554785747070312,5.14878126953125,18.44576574707031,5.22163126953125Q18.336755747070313,5.29447126953125,18.221125747070314,5.35627126953125Q18.105495747070314,5.41807126953125,17.984365747070314,5.46825126953125Q17.863245747070312,5.51842126953125,17.737775747070312,5.55648126953125Q17.612315747070312,5.59454126953125,17.483725747070313,5.62012126953125Q17.355135747070314,5.64570126953125,17.22465574707031,5.65855126953125Q17.094175747070313,5.67140126953125,16.963065747070313,5.67140126953125Q16.831955747070314,5.67140126953125,16.70147574707031,5.65855126953125Q16.570995747070313,5.64570126953125,16.442405747070314,5.62012126953125Q16.31381574707031,5.59454126953125,16.18835574707031,5.55648126953125Q16.06288574707031,5.51842126953125,15.941755747070312,5.46825126953125Q15.820625747070313,5.41807126953125,15.705005747070313,5.35627126953125Q15.589375747070312,5.29447126953125,15.480355747070313,5.22163126953125Q15.371345747070313,5.14878126953125,15.269996747070312,5.06561126953125Q15.168647747070313,4.98243126953125,15.075938747070312,4.88973126953125Q14.983230747070312,4.79702126953125,14.900055747070313,4.69567126953125Q14.816879747070313,4.59432126953125,14.744039747070312,4.48530126953125Q14.671198747070312,4.37629126953125,14.609393747070312,4.26066126953125Q14.547589747070312,4.14503126953125,14.497415747070313,4.02390126953125Q14.447242747070312,3.90278126953125,14.409183747070312,3.77731126953125Q14.371124247070313,3.65185126953125,14.345545947070313,3.52326126953125Q14.319967747070313,3.39467126953125,14.307116747070312,3.26419126953125Q14.294265747070312,3.13371126953125,14.294265747070312,3.00260126953125Q14.294265747070312,2.87149126953125,14.307116747070312,2.74101126953125Q14.319967747070313,2.61053126953125,14.345545947070313,2.48194126953125Q14.371124247070313,2.35335126953125,14.409183747070312,2.2278912695312503Q14.447242747070312,2.1024212695312503,14.497415747070313,1.98129126953125Q14.547589747070312,1.86016126953125,14.609393747070312,1.74454126953125Q14.671198747070312,1.62891126953125,14.744039747070312,1.51989126953125Q14.816879747070313,1.41088126953125,14.900055747070313,1.3095322695312501Q14.983230747070312,1.20818326953125,15.075938747070312,1.11547426953125Q15.168647747070313,1.02276626953125,15.269996747070312,0.93959126953125Q15.371345747070313,0.85641526953125,15.480355747070313,0.78357526953125Q15.589375747070312,0.71073426953125,15.705005747070313,0.6489292695312501Q15.820625747070313,0.58712526953125,15.941755747070312,0.5369512695312499Q16.06288574707031,0.48677826953125003,16.18835574707031,0.44871926953125Q16.31381574707031,0.41065976953125,16.442405747070314,0.38508146953125Q16.570995747070313,0.35950326953125,16.70147574707031,0.34665226953125Q16.831955747070314,0.33380126953125,16.963065747070313,0.33380126953125Q17.094175747070313,0.33380126953125,17.22465574707031,0.34665226953125Q17.355135747070314,0.35950326953125,17.483725747070313,0.38508146953125Q17.612315747070312,0.41065976953125,17.737775747070312,0.44871926953125Q17.863245747070312,0.48677826953125003,17.984365747070314,0.5369512695312499Q18.105495747070314,0.58712526953125,18.221125747070314,0.6489292695312501Q18.336755747070313,0.71073426953125,18.44576574707031,0.78357526953125Q18.554785747070312,0.85641526953125,18.656135747070312,0.93959126953125Q18.757485747070312,1.02276626953125,18.850195747070313,1.11547426953125Q18.942895747070313,1.20818326953125,19.026075747070312,1.3095322695312501Q19.10924574707031,1.41088126953125,19.182095747070314,1.51989126953125Q19.254935747070313,1.62891126953125,19.31673574707031,1.74454126953125Q19.378535747070313,1.86016126953125,19.428715747070314,1.98129126953125Q19.47888574707031,2.1024212695312503,19.516945747070313,2.2278912695312503Q19.55500574707031,2.35335126953125,19.580585747070312,2.48194126953125Q19.606165747070314,2.61053126953125,19.619015747070314,2.74101126953125Q19.631865747070314,2.87149126953125,19.631865747070314,3.00260126953125Z" fill="#EDCE18" fill-opacity="1"/></g></g></g></svg>